<svg width="12" height="12" viewBox="0 0 12 12" fill="none" xmlns="http://www.w3.org/2000/svg">
<g clip-path="url(#clip0)">
<path d="M11.9219 4.45638C11.9219 3.90138 11.4719 3.45638 10.9219 3.45638H7.76188L8.24188 1.17138C8.25188 1.12138 8.25688 1.06638 8.25688 1.01138C8.25688 0.806375 8.17188 0.616375 8.03687 0.481375L7.50688 -0.0436249L4.21688 3.24638C4.03188 3.43138 3.92188 3.68138 3.92188 3.95638V8.95638C3.92188 9.22159 4.02723 9.47595 4.21477 9.66348C4.4023 9.85102 4.65666 9.95638 4.92188 9.95638H9.42188C9.83687 9.95638 10.1919 9.70638 10.3419 9.34638L11.8519 5.82137C11.8969 5.70638 11.9219 5.58638 11.9219 5.45638V4.45638ZM0.921875 9.95638H2.92188V3.95638H0.921875V9.95638Z" fill="#4A7598"/>
</g>
<defs>
<clipPath id="clip0">
<rect width="12" height="12" fill="white"/>
</clipPath>
</defs>
</svg>
