<svg width="12" height="12" viewBox="0 0 12 12" fill="none" xmlns="http://www.w3.org/2000/svg">
<g clip-path="url(#clip0)">
<path d="M8.625 0H3.375C2.75464 0 2.25 0.504636 2.25 1.125V10.875C2.25 11.4954 2.75464 12 3.375 12H8.625C9.24536 12 9.75 11.4954 9.75 10.875V1.125C9.75 0.504636 9.24536 0 8.625 0ZM3.375 0.75H8.625C8.83191 0.75 9 0.918091 9 1.125V1.5H3V1.125C3 0.918091 3.16809 0.75 3.375 0.75ZM9 2.25V9.75H3V2.25H9ZM8.625 11.25H3.375C3.16809 11.25 3 11.0819 3 10.875V10.5H9V10.875C9 11.0819 8.83191 11.25 8.625 11.25Z" fill="white"/>
</g>
<defs>
<clipPath id="clip0">
<rect width="11.5831" height="12" fill="white"/>
</clipPath>
</defs>
</svg>
