<svg width="14" height="12" viewBox="0 0 14 12" fill="none" xmlns="http://www.w3.org/2000/svg">
<path d="M6 0C2.6916 0 0 2.6916 0 6C0 9.3084 2.6916 12 6 12C9.3084 12 12 9.3084 12 6C12 2.6916 9.3084 0 6 0ZM6 11.3998C3.0224 11.3998 0.6 8.9774 0.6 5.9998C0.6 3.0222 3.0224 0.5998 6 0.5998C8.9778 0.5998 11.4 3.0222 11.4 5.9998C11.4 8.9774 8.9778 11.3998 6 11.3998Z" fill="white"/>
<path d="M2.1836 5.76665C2.1836 5.65625 2.094 5.56665 1.9836 5.56665H0.916797C0.806397 5.56665 0.716797 5.65625 0.716797 5.76665C0.716797 5.87705 0.806397 5.96665 0.916797 5.96665H1.9836C2.094 5.96665 2.1836 5.87705 2.1836 5.76665Z" fill="white"/>
<path d="M9.54102 5.76665C9.54102 5.87705 9.63062 5.96665 9.74102 5.96665H10.8078C10.9182 5.96665 11.0078 5.87705 11.0078 5.76665C11.0078 5.65625 10.9182 5.56665 10.8078 5.56665H9.74102C9.63062 5.56665 9.54102 5.65625 9.54102 5.76665Z" fill="white"/>
<path d="M5.8748 2.32087C5.9852 2.32087 6.0748 2.23127 6.0748 2.12087V1.05407C6.0748 0.943665 5.9852 0.854065 5.8748 0.854065C5.7644 0.854065 5.6748 0.943665 5.6748 1.05407V2.12087C5.6748 2.23127 5.7644 2.32087 5.8748 2.32087Z" fill="white"/>
<path d="M5.8748 9.67896C5.7644 9.67896 5.6748 9.76856 5.6748 9.87896V10.9458C5.6748 11.0564 5.7644 11.1458 5.8748 11.1458C5.9852 11.1458 6.0748 11.0564 6.0748 10.9458V9.87896C6.0748 9.76856 5.9852 9.67896 5.8748 9.67896Z" fill="white"/>
<path d="M1.9834 3.88318C2.1123 3.88318 2.2168 3.77869 2.2168 3.64978C2.2168 3.52088 2.1123 3.41638 1.9834 3.41638C1.8545 3.41638 1.75 3.52088 1.75 3.64978C1.75 3.77869 1.8545 3.88318 1.9834 3.88318Z" fill="white"/>
<path d="M9.97461 3.88318C10.1035 3.88318 10.208 3.77869 10.208 3.64978C10.208 3.52088 10.1035 3.41638 9.97461 3.41638C9.84571 3.41638 9.74121 3.52088 9.74121 3.64978C9.74121 3.77869 9.84571 3.88318 9.97461 3.88318Z" fill="white"/>
<path d="M3.5 2.05426C3.6289 2.05426 3.7334 1.94977 3.7334 1.82086C3.7334 1.69196 3.6289 1.58746 3.5 1.58746C3.3711 1.58746 3.2666 1.69196 3.2666 1.82086C3.2666 1.94977 3.3711 2.05426 3.5 2.05426Z" fill="white"/>
<path d="M8.25 2.05426C8.37891 2.05426 8.4834 1.94977 8.4834 1.82086C8.4834 1.69196 8.37891 1.58746 8.25 1.58746C8.1211 1.58746 8.0166 1.69196 8.0166 1.82086C8.0166 1.94977 8.1211 2.05426 8.25 2.05426Z" fill="white"/>
<path d="M2.00391 8.58318C2.13281 8.58318 2.23731 8.47868 2.23731 8.34979C2.23731 8.22089 2.13281 8.11639 2.00391 8.11639C1.875 8.11639 1.77051 8.22089 1.77051 8.34979C1.77051 8.47868 1.875 8.58318 2.00391 8.58318Z" fill="white"/>
<path d="M9.9961 8.58318C10.125 8.58318 10.2295 8.47868 10.2295 8.34979C10.2295 8.22089 10.125 8.11639 9.9961 8.11639C9.86719 8.11639 9.7627 8.22089 9.7627 8.34979C9.7627 8.47868 9.86719 8.58318 9.9961 8.58318Z" fill="white"/>
<path d="M3.52051 10.4125C3.64942 10.4125 3.75391 10.308 3.75391 10.1791C3.75391 10.0502 3.64942 9.94574 3.52051 9.94574C3.39161 9.94574 3.28711 10.0502 3.28711 10.1791C3.28711 10.308 3.39161 10.4125 3.52051 10.4125Z" fill="white"/>
<path d="M8.27051 10.4125C8.39941 10.4125 8.50391 10.308 8.50391 10.1791C8.50391 10.0502 8.39941 9.94574 8.27051 9.94574C8.14161 9.94574 8.03711 10.0502 8.03711 10.1791C8.03711 10.308 8.14161 10.4125 8.27051 10.4125Z" fill="white"/>
<path d="M5.24377 2.41009C5.20777 2.30569 5.09397 2.25009 4.98957 2.28589C4.88517 2.32189 4.82957 2.43549 4.86537 2.54009L6.06917 6.04249L3.40997 8.63609C3.33077 8.71309 3.32937 8.83988 3.40657 8.91868C3.44577 8.95888 3.49757 8.97908 3.54977 8.97908C3.60017 8.97908 3.65057 8.96029 3.68937 8.92248L6.43937 6.24068C6.49477 6.18649 6.51397 6.10569 6.48897 6.03249L5.24377 2.41009Z" fill="white"/>
</svg>
