<svg width="14" height="14" viewBox="0 0 14 14" fill="none" xmlns="http://www.w3.org/2000/svg">
<path d="M10.4989 0.00291293L8.68344 0C6.6438 0 5.3257 1.35233 5.3257 3.44542V5.03399H3.50031C3.34258 5.03399 3.21484 5.16187 3.21484 5.3196V7.62126C3.21484 7.77899 3.34272 7.90672 3.50031 7.90672H5.3257V13.7145C5.3257 13.8723 5.45343 14 5.61117 14H7.99278C8.15052 14 8.27825 13.8721 8.27825 13.7145V7.90672H10.4126C10.5703 7.90672 10.698 7.77899 10.698 7.62126L10.6989 5.3196C10.6989 5.24386 10.6687 5.17133 10.6153 5.11773C10.5618 5.06414 10.489 5.03399 10.4133 5.03399H8.27825V3.68734C8.27825 3.04008 8.43249 2.71151 9.27564 2.71151L10.4986 2.71107C10.6562 2.71107 10.784 2.58319 10.784 2.4256V0.288381C10.784 0.130936 10.6564 0.00320423 10.4989 0.00291293Z" fill="white"/>
</svg>
