<svg width="160" height="68" viewBox="0 0 160 68" fill="none" xmlns="http://www.w3.org/2000/svg">
<path d="M26.8604 58.0971V37.4006H31.0952C34.2922 37.4006 36.8456 38.2074 38.7553 39.8209C41.1219 41.786 42.3052 44.434 42.3052 47.7644C42.3052 50.9914 41.0907 53.6391 38.6619 55.7078C37.6655 56.5558 36.5965 57.1662 35.4546 57.5385C34.3128 57.9109 32.8494 58.0971 31.0641 58.0971H26.8604ZM29.1646 39.5727V55.925H31.1886C33.6589 55.925 35.6415 55.3044 37.1361 54.0633C39.0044 52.491 39.9386 50.3916 39.9386 47.7644C39.9386 45.282 39.1393 43.2962 37.5409 41.8068C35.9426 40.3174 33.8252 39.5727 31.1886 39.5727H29.1646ZM55.5653 53.784L57.4336 54.808C56.9977 55.6355 56.4683 56.3284 55.8455 56.8869C54.6622 57.9419 53.2299 58.4694 51.5484 58.4694C49.8046 58.4694 48.2994 57.9109 47.0333 56.7938C45.7877 55.656 45.1649 53.9702 45.1649 51.7361C45.1649 49.771 45.7254 48.1469 46.8464 46.8645C47.988 45.5613 49.5138 44.9097 51.4238 44.9097C53.5827 44.9097 55.2121 45.6956 56.3126 47.2679C57.1845 48.5091 57.5893 50.1226 57.527 52.1084H47.4692C47.4897 53.4117 47.8946 54.4667 48.6836 55.2734C49.4724 56.0802 50.4377 56.4835 51.5795 56.4835C52.5965 56.4835 53.479 56.1733 54.2263 55.5527C54.8073 55.0562 55.2539 54.4667 55.5653 53.784ZM47.6249 50.2467H55.2227C55.0359 49.233 54.5894 48.4262 53.8838 47.8264C53.1987 47.2058 52.3785 46.8955 51.4238 46.8955C50.4897 46.8955 49.6592 47.2161 48.9327 47.8574C48.2268 48.478 47.7909 49.2746 47.6249 50.2467ZM60.9659 58.0971V45.22H63.2078V50.4949H69.311V45.22H71.553V58.0971H69.311V52.5428H63.2078V58.0971H60.9659ZM84.245 47.2679H80.197V58.0971H77.955V47.2679H73.907V45.22H84.245V47.2679ZM96.5027 47.0507V45.22H98.7447V58.0971H96.5027V56.2974C95.3817 57.7455 93.908 58.4694 92.081 58.4694C90.3373 58.4694 88.8532 57.8696 87.6282 56.6697C86.4035 55.4698 85.791 53.7942 85.791 51.643C85.791 49.533 86.3933 47.8885 87.5971 46.7094C88.8221 45.5095 90.3167 44.9097 92.081 44.9097C93.9494 44.9097 95.4235 45.6234 96.5027 47.0507ZM92.3302 46.8955C91.1469 46.8955 90.1402 47.3197 89.3097 48.1677C88.5001 48.9953 88.0953 50.1536 88.0953 51.643C88.0953 53.0703 88.469 54.2392 89.2163 55.1493C89.9845 56.0389 91.0223 56.4835 92.3302 56.4835C93.638 56.4835 94.6762 56.0181 95.444 55.0872C96.2331 54.1564 96.6273 53.0185 96.6273 51.674C96.6273 50.1434 96.1914 48.9643 95.3195 48.1367C94.4476 47.3092 93.4511 46.8955 92.3302 46.8955ZM112.769 45.22V58.0971H110.527V47.2679H105.918V53.0703C105.918 54.7459 105.586 55.9871 104.922 56.7938C104.174 57.7039 103.136 58.1591 101.808 58.1591C101.642 58.1591 101.413 58.1383 101.123 58.0971V56.0491C101.33 56.0904 101.497 56.1112 101.621 56.1112C102.348 56.1112 102.887 55.8319 103.24 55.2734C103.531 54.8182 103.676 54.0841 103.676 53.0703V45.22H112.769ZM117.01 45.22H119.252V53.722L128.095 44.227V58.0971H125.853V49.502L117.01 58.9969V45.22ZM132.336 45.22H134.578V50.4949L139.809 45.22H142.549L136.944 50.9604L143.234 58.0971H140.307L135.263 52.4498L134.578 53.1014V58.0971H132.336V45.22ZM155.374 47.0507V45.22H157.616V58.0971H155.374V56.2974C154.253 57.7455 152.78 58.4694 150.953 58.4694C149.209 58.4694 147.725 57.8696 146.5 56.6697C145.275 55.4698 144.663 53.7942 144.663 51.643C144.663 49.533 145.265 47.8885 146.469 46.7094C147.693 45.5095 149.188 44.9097 150.953 44.9097C152.821 44.9097 154.295 45.6234 155.374 47.0507ZM151.202 46.8955C150.019 46.8955 149.012 47.3197 148.181 48.1677C147.372 48.9953 146.967 50.1536 146.967 51.643C146.967 53.0703 147.341 54.2392 148.088 55.1493C148.856 56.0389 149.894 56.4835 151.202 56.4835C152.51 56.4835 153.548 56.0181 154.316 55.0872C155.104 54.1564 155.499 53.0185 155.499 51.674C155.499 50.1434 155.063 48.9643 154.191 48.1367C153.319 47.3092 152.323 46.8955 151.202 46.8955Z" fill="white"/>
<path d="M63.04 33.7928V34.3698C62.8724 34.2024 62.6899 34.073 62.4925 33.9809C62.2533 33.8723 62.0121 33.8178 61.7686 33.8178C61.2863 33.8178 60.8835 33.9872 60.5602 34.3259C60.2415 34.6602 60.0819 35.0722 60.0819 35.5614C60.0819 36.0883 60.2561 36.5042 60.6043 36.8095C60.9567 37.1149 61.3469 37.2674 61.7749 37.2674C62.0436 37.2674 62.3036 37.2027 62.5554 37.0729C62.7316 36.9851 62.8933 36.8679 63.04 36.7217V37.2987C62.6584 37.5704 62.2367 37.7064 61.7749 37.7064C61.1542 37.7064 60.6357 37.4994 60.2203 37.0855C59.8092 36.6715 59.6035 36.1615 59.6035 35.5551C59.6035 34.9322 59.8112 34.4137 60.2266 33.9997C60.6463 33.5858 61.1707 33.3788 61.8001 33.3788C62.2619 33.3788 62.675 33.5168 63.04 33.7928ZM69.0982 33.8868H68.0785V37.6311H67.6128V33.8868H66.5932V33.4478H69.0982V33.8868ZM76.1577 37.0855C75.738 37.4994 75.2219 37.7064 74.6094 37.7064C73.9966 37.7064 73.4785 37.4994 73.0548 37.0855C72.6351 36.6715 72.4254 36.1572 72.4254 35.5426C72.4254 34.9237 72.6371 34.4094 73.0611 33.9997C73.4848 33.5858 74.0009 33.3788 74.6094 33.3788C75.2176 33.3788 75.7337 33.5858 76.1577 33.9997C76.5814 34.4094 76.7934 34.9237 76.7934 35.5426C76.7934 36.1572 76.5814 36.6715 76.1577 37.0855ZM75.8178 34.3196C75.4862 33.9852 75.0834 33.8178 74.6094 33.8178C74.135 33.8178 73.7322 33.9852 73.4009 34.3196C73.0694 34.654 72.9037 35.0616 72.9037 35.5426C72.9037 36.0235 73.0694 36.4312 73.4009 36.7656C73.7322 37.1 74.135 37.2674 74.6094 37.2674C75.0834 37.2674 75.4862 37.1 75.8178 36.7656C76.1491 36.4312 76.3151 36.0235 76.3151 35.5426C76.3151 35.0616 76.1491 34.654 75.8178 34.3196ZM81.1296 37.6311H80.6513L81.3499 33.2157L82.9612 36.7468L84.6039 33.2095L85.2585 37.6311H84.7802L84.3836 34.721L82.9549 37.8067L81.545 34.721L81.1296 37.6311ZM92.1836 37.6311L91.6926 36.452H89.9051L89.4016 37.6311H88.8855L90.8178 33.2471L92.6997 37.6311H92.1836ZM90.0877 36.013H91.5101L90.8052 34.3384L90.0877 36.013ZM98.4169 33.8868H97.3973V37.6311H96.9315V33.8868H95.9119V33.4478H98.4169V33.8868ZM105.476 37.0855C105.057 37.4994 104.541 37.7064 103.928 37.7064C103.315 37.7064 102.797 37.4994 102.373 37.0855C101.954 36.6715 101.744 36.1572 101.744 35.5426C101.744 34.9237 101.956 34.4094 102.379 33.9997C102.804 33.5858 103.32 33.3788 103.928 33.3788C104.536 33.3788 105.052 33.5858 105.476 33.9997C105.9 34.4094 106.112 34.9237 106.112 35.5426C106.112 36.1572 105.9 36.6715 105.476 37.0855ZM105.136 34.3196C104.805 33.9852 104.402 33.8178 103.928 33.8178C103.454 33.8178 103.051 33.9852 102.719 34.3196C102.388 34.654 102.222 35.0616 102.222 35.5426C102.222 36.0235 102.388 36.4312 102.719 36.7656C103.051 37.1 103.454 37.2674 103.928 37.2674C104.402 37.2674 104.805 37.1 105.136 36.7656C105.468 36.4312 105.633 36.0235 105.633 35.5426C105.633 35.0616 105.468 34.654 105.136 34.3196ZM110.542 33.4478H113.098V37.6311H112.632V33.8868H111.008V36.1322C111.008 36.3286 111.006 36.4771 111.002 36.5775C110.998 36.6735 110.964 36.8115 110.901 36.9914C110.843 37.167 110.752 37.3093 110.631 37.4179C110.442 37.5852 110.203 37.6688 109.913 37.6688C109.846 37.6688 109.762 37.6562 109.661 37.6311V37.1921C109.745 37.2172 109.823 37.2297 109.894 37.2297C110.058 37.2297 110.194 37.1753 110.303 37.0667C110.379 36.9914 110.435 36.8848 110.473 36.7468C110.511 36.6045 110.532 36.4854 110.536 36.3893C110.54 36.2932 110.542 36.1447 110.542 35.944V33.4478ZM120.836 37.0855C120.417 37.4994 119.901 37.7064 119.288 37.7064C118.675 37.7064 118.157 37.4994 117.734 37.0855C117.314 36.6715 117.104 36.1572 117.104 35.5426C117.104 34.9237 117.316 34.4094 117.74 33.9997C118.164 33.5858 118.68 33.3788 119.288 33.3788C119.896 33.3788 120.412 33.5858 120.836 33.9997C121.26 34.4094 121.472 34.9237 121.472 35.5426C121.472 36.1572 121.26 36.6715 120.836 37.0855ZM120.497 34.3196C120.165 33.9852 119.762 33.8178 119.288 33.8178C118.814 33.8178 118.411 33.9852 118.08 34.3196C117.748 34.654 117.582 35.0616 117.582 35.5426C117.582 36.0235 117.748 36.4312 118.08 36.7656C118.411 37.1 118.814 37.2674 119.288 37.2674C119.762 37.2674 120.165 37.1 120.497 36.7656C120.828 36.4312 120.994 36.0235 120.994 35.5426C120.994 35.0616 120.828 34.654 120.497 34.3196ZM125.475 37.6311V33.4478H127.388V33.8868H125.941V37.6311H125.475ZM134.087 37.6311V34.4388L131.166 37.8193V33.4478H131.632V36.6527L134.552 33.2722V37.6311H134.087ZM138.429 37.6311L139.663 35.7747C139.378 35.7453 139.143 35.6575 138.958 35.5112C138.715 35.3148 138.593 35.0303 138.593 34.6583C138.593 34.3153 138.69 34.0374 138.882 33.8241C139.109 33.5732 139.457 33.4478 139.927 33.4478H140.909V37.6311H140.443V35.7997H140.191L138.996 37.6311H138.429ZM140.443 33.8868H139.99C139.655 33.8868 139.415 33.9601 139.273 34.1063C139.138 34.2486 139.071 34.4282 139.071 34.6457C139.071 34.8923 139.151 35.0805 139.31 35.2102C139.461 35.3274 139.675 35.3858 139.952 35.3858H140.443V33.8868Z" fill="white"/>
<path d="M36.9358 18.8155C20.0411 35.6508 0 28.0583 0 31.0291C0 34 8.28124 34.9903 10.4345 34.9903C46.3765 34.9903 37.2671 17.6602 102.526 17.6602C142.774 17.6602 155.362 33.6699 155.362 45.2233H155.694V58.0971H157.681V44.5988C157.681 34.4951 146.749 13.534 91.2328 13.534C69.0382 13.534 67.7433 3.13592 81.325 3.13592C80.7178 2.58576 75.793 0 67.5776 0C57.3085 0 45.0034 10.7763 36.9358 18.8155Z" fill="white"/>
</svg>
