<svg width="35" height="35" viewBox="0 0 35 35" fill="none" xmlns="http://www.w3.org/2000/svg">
<path d="M30.1814 13.1783C30.0463 13.0238 29.8546 12.9306 29.6495 12.9196L27.1424 12.7849L26.9389 10.4886C26.9085 10.1413 26.6444 9.85934 26.3005 9.80417L25.1562 9.62228L25.3376 5.49798C25.3543 5.11145 25.0789 4.77363 24.6962 4.71311L21.8935 4.26952L22.4744 1.20773C22.5258 0.938343 22.4276 0.662602 22.2188 0.485277C22.0096 0.307617 21.7197 0.257016 21.464 0.352088C20.9835 0.528967 20.5122 0.753773 20.0568 0.971111C19.1704 1.39375 18.333 1.79321 17.5645 1.79321C16.796 1.79321 15.958 1.39375 15.0708 0.970665C14.0704 0.493413 13.0352 0 11.9229 0C7.69691 0 4.62988 4.59408 4.62988 10.9237C4.62988 14.3557 6.73182 34.9999 11.9229 34.9999C13.5366 34.9999 14.0989 32.5461 15.0337 27.8428C15.5206 25.3917 16.5341 20.2905 17.5617 20.2859C18.9792 20.2908 19.8576 25.3068 20.3815 28.3035C21.0876 32.3361 21.5533 34.9999 23.2066 34.9999C28.525 34.9999 30.35 13.952 30.3672 13.7401C30.3834 13.5351 30.3161 13.3327 30.1814 13.1783ZM23.2724 33.4744C22.747 32.9961 22.2269 30.0235 21.8807 28.0414C21.0834 23.485 20.2585 18.7737 17.5613 18.7641C15.284 18.774 14.4763 22.8393 13.5409 27.5464C13.108 29.7267 12.4569 33.0015 11.8647 33.4751C10.9315 33.3795 9.36451 30.9962 7.92372 24.5207C6.8143 19.5368 6.15158 13.6934 6.15158 10.9237C6.15158 5.47591 8.57841 1.5217 11.9227 1.5217C12.6909 1.5217 13.5289 1.92116 14.4153 2.34458C15.4159 2.82205 16.4511 3.31546 17.5634 3.31546C18.675 3.31546 19.7087 2.82283 20.7088 2.34614L20.2511 4.75692C20.2123 4.95898 20.2579 5.16819 20.3766 5.33637C20.4946 5.50489 20.676 5.61791 20.8795 5.65023L23.7864 6.11021L23.6049 10.2342C23.5878 10.6204 23.8636 10.9582 24.2456 11.019L25.474 11.2142L25.6837 13.5767C25.7171 13.9538 26.0226 14.2486 26.4008 14.2691L28.7838 14.3969C27.8368 25.0733 25.1076 33.2789 23.2724 33.4744Z" fill="#7EA8B8"/>
</svg>
