<svg width="35" height="35" viewBox="0 0 35 35" fill="none" xmlns="http://www.w3.org/2000/svg">
<path d="M26.0132 3.32675C25.846 3.20447 25.6258 3.18693 25.4433 3.27984C25.2595 3.37275 25.1436 3.56115 25.1436 3.767V11.2974C25.1436 12.553 24.121 13.5741 22.8646 13.5741H12.1353C10.8789 13.5741 9.85628 12.5527 9.85628 11.2974V3.76666C9.85628 3.56082 9.7402 3.37242 9.5566 3.27951C9.37392 3.1866 9.15334 3.20414 8.98671 3.32642C6.72518 4.98587 5.375 8.38743 5.375 12.4257C5.375 15.0741 5.97683 20.5728 7.09088 25.5475C8.49617 31.8195 10.1929 34.9997 12.1339 34.9997C13.5253 34.9997 14.0715 32.6077 14.917 28.3795C15.4968 25.4819 16.3728 21.1032 17.4974 21.0984C18.9956 21.1038 19.7809 25.5624 20.3545 28.818C21.0099 32.5407 21.4435 34.9999 22.8654 34.9999C27.4506 34.9999 29.6246 16.8933 29.6248 12.4259C29.6249 8.38777 28.2747 4.98621 26.0132 3.32675ZM22.8771 33.9094C22.3244 33.7055 21.7861 30.6501 21.4298 28.6286C20.6839 24.3939 19.9129 20.0149 17.4975 20.0064C15.4766 20.0149 14.685 23.9742 13.8463 28.1655C13.4306 30.2434 12.735 33.7222 12.1338 33.9077C9.16145 33.9077 6.46696 18.443 6.46696 12.426C6.46696 9.36439 7.32693 6.64822 8.76382 5.01078V11.2978C8.76382 13.1551 10.2764 14.6667 12.1352 14.6667H22.8642C24.7233 14.6667 26.2355 13.1552 26.2355 11.2978V5.01078C27.6724 6.64814 28.5324 9.36439 28.5324 12.426C28.5323 18.4427 25.8378 33.9076 22.8771 33.9094Z" fill="#7EA8B8"/>
<path d="M23.9951 0H11.0043C10.6922 0 10.4395 0.253009 10.4395 0.564844V8.4754C10.4395 10.0309 11.7081 11.2964 13.2669 11.2964H21.7325C23.2914 11.2964 24.5599 10.0309 24.5599 8.4754V0.564844C24.5599 0.253009 24.3071 0 23.9951 0ZM23.4305 8.4754C23.4305 9.40792 22.6686 10.1667 21.7327 10.1667H13.267C12.3308 10.1667 11.5691 9.40817 11.5691 8.4754V1.12961H23.4305V8.4754Z" fill="#7EA8B8"/>
<path d="M19.7596 5.22289C19.5252 5.01787 19.1688 5.04211 18.9627 5.27708L17.4413 7.02126L15.9522 5.28105C15.7494 5.04385 15.3924 5.01754 15.1557 5.21917C14.9185 5.42195 14.8908 5.7783 15.0939 6.01559L17.0084 8.25254C17.1149 8.37706 17.271 8.44913 17.4348 8.44995C17.436 8.44995 17.4365 8.44995 17.4376 8.44995C17.6009 8.44995 17.7559 8.37938 17.8632 8.25652L19.8141 6.01956C20.0188 5.78459 19.9946 5.42791 19.7596 5.22289Z" fill="#7EA8B8"/>
<path d="M19.7596 2.39867C19.5252 2.19365 19.1688 2.21789 18.9627 2.45286L17.4413 4.19704L15.9522 2.45684C15.7494 2.21963 15.3924 2.19307 15.1557 2.39503C14.9185 2.59782 14.8908 2.95417 15.0939 3.19146L17.0084 5.42842C17.1149 5.55294 17.271 5.625 17.4348 5.62583C17.436 5.62583 17.4365 5.62583 17.4376 5.62583C17.6009 5.62583 17.7559 5.55525 17.8632 5.43239L19.8141 3.19543C20.0188 2.96037 19.9946 2.60369 19.7596 2.39867Z" fill="#7EA8B8"/>
</svg>
