<svg width="40" height="40" viewBox="0 0 40 40" fill="none" xmlns="http://www.w3.org/2000/svg">
<g clip-path="url(#clip0)">
<path d="M14.0444 3.92436L11.7751 2.65522L10.5333 0.334016C10.2956 -0.111339 9.57819 -0.111339 9.34051 0.334016L8.09882 2.65532L5.82951 3.92436C5.61086 4.04639 5.47559 4.28007 5.47559 4.53453C5.47559 4.78899 5.61096 5.02267 5.82951 5.1447L8.09882 6.41414L9.34061 8.73514C9.45965 8.95833 9.68876 9.09676 9.937 9.09676C10.1852 9.09676 10.4143 8.95843 10.5334 8.73514L11.7752 6.41425L14.0445 5.1448C14.2631 5.02277 14.3984 4.78909 14.3984 4.53463C14.3984 4.28017 14.2629 4.04649 14.0444 3.92436ZM10.9478 5.29189C10.8335 5.35587 10.74 5.45182 10.6774 5.56836L9.9369 6.9522L9.19637 5.56836C9.13381 5.45193 9.04027 5.35587 8.92602 5.29189L7.57276 4.53463L8.92602 3.77767C9.04027 3.7137 9.13381 3.61774 9.19637 3.50121L9.9369 2.11696L10.6774 3.50121C10.74 3.61764 10.8335 3.7137 10.9478 3.77767L12.301 4.53463L10.9478 5.29189Z" fill="#7EA8B8"/>
<path d="M12.9838 36.0655L11.4969 35.2338L10.6832 33.7129C10.4455 33.2668 9.72812 33.2668 9.49044 33.7129L8.6768 35.2338L7.18986 36.0655C6.97121 36.1875 6.83594 36.4212 6.83594 36.6757C6.83594 36.9301 6.97131 37.1638 7.18986 37.2858L8.6768 38.1176L9.49044 39.6384C9.60948 39.8616 9.83859 40 10.0868 40C10.3354 40 10.5642 39.8617 10.6832 39.6384L11.4969 38.1176L12.9838 37.2858C13.2024 37.1638 13.3377 36.9301 13.3377 36.6757C13.3377 36.4212 13.2023 36.1875 12.9838 36.0655ZM10.6703 36.9948C10.556 37.0588 10.4625 37.1547 10.3999 37.2713L10.0871 37.8558L9.77434 37.2713C9.71178 37.1548 9.61825 37.0588 9.50399 36.9948L8.9334 36.6757L9.50399 36.3565C9.61825 36.2926 9.71178 36.1966 9.77434 36.0801L10.0871 35.4956L10.3999 36.0801C10.4625 36.1965 10.556 36.2926 10.6703 36.3565L11.2409 36.6757L10.6703 36.9948Z" fill="#7EA8B8"/>
<path d="M24.0318 8.31754C23.1865 8.31754 22.412 8.6924 21.6636 9.05504C21.0227 9.36552 20.4178 9.65869 19.8785 9.65869C19.3392 9.65869 18.7336 9.36563 18.0927 9.05504C17.3443 8.6924 16.5705 8.31754 15.7252 8.31754C12.5447 8.31754 10.2363 11.806 10.2363 16.6126C10.2363 19.3025 11.7501 34.7427 15.7252 34.7427C17.0652 34.7427 17.4895 32.5738 18.1318 29.2915C18.4287 27.7738 19.2168 23.7426 19.8758 23.7397C20.8203 23.7429 21.4804 27.5738 21.835 29.6318C22.3651 32.7093 22.715 34.7423 24.0319 34.7423C28.007 34.7423 29.5204 19.302 29.5207 16.6125C29.5206 11.806 27.2123 8.31754 24.0318 8.31754ZM24.1293 33.3411C23.7747 32.8752 23.4153 30.7907 23.1742 29.3906C22.5778 25.9324 21.9624 22.3559 19.8757 22.3486C18.1012 22.3566 17.4976 25.4438 16.7982 29.0183C16.4953 30.5662 16.0437 32.8756 15.6367 33.3433C13.7965 33.0001 11.5963 22.0576 11.5963 16.6123C11.5963 12.6763 13.3715 9.708 15.7251 9.708C16.2644 9.708 16.8699 10.0015 17.5105 10.3116C18.2589 10.6743 19.0327 11.0492 19.878 11.0492C20.7226 11.0492 21.4971 10.6743 22.2455 10.3116C22.8864 10.0015 23.492 9.708 24.0313 9.708C26.3849 9.708 28.1601 12.6763 28.1601 16.6123C28.1602 22.0481 25.9681 32.9618 24.1293 33.3411Z" fill="#7EA8B8"/>
<path d="M25.9046 13.8126L24.4177 12.9808L23.6041 11.46C23.3664 11.0139 22.649 11.0139 22.4113 11.46L21.5977 12.9808L20.1108 13.8126C19.8921 13.9346 19.7568 14.1683 19.7568 14.4227C19.7568 14.6773 19.8922 14.9109 20.1108 15.0329L21.5977 15.8646L22.4113 17.3855C22.5303 17.6086 22.7595 17.7471 23.0077 17.7471C23.2562 17.7471 23.485 17.6086 23.6041 17.3855L24.4177 15.8646L25.9046 15.0329C26.1233 14.9109 26.2585 14.6772 26.2585 14.4227C26.2586 14.1683 26.1233 13.9346 25.9046 13.8126ZM23.5912 14.742C23.477 14.8059 23.3834 14.9019 23.3209 15.0184L23.0081 15.6029L22.6953 15.0184C22.6327 14.902 22.5392 14.8059 22.425 14.742L21.8544 14.4228L22.425 14.1037C22.5392 14.0397 22.6327 13.9438 22.6953 13.8272L23.0081 13.2427L23.3209 13.8272C23.3834 13.9437 23.477 14.0397 23.5912 14.1037L24.1618 14.4228L23.5912 14.742Z" fill="#7EA8B8"/>
<path d="M36.0654 12.6885C35.638 11.932 34.4718 11.1444 29.2997 13.0342C28.9458 13.1635 28.7611 13.5616 28.8879 13.9233C29.0135 14.2845 29.404 14.4726 29.7567 14.3444C33.451 12.9957 34.7314 13.2073 34.8855 13.3798C35.1871 14.3245 30.6615 19.0915 20.9357 24.8334C11.2129 30.5743 4.91175 32.2012 4.26566 31.4696C4.17859 31.196 4.90179 29.3765 10.0313 25.4659C10.3322 25.2364 10.3944 24.8007 10.1701 24.4927C9.94495 24.1849 9.5193 24.1203 9.21836 24.3508C4.32792 28.0791 2.26471 30.7064 3.08553 32.1601C3.39563 32.7091 4.05896 32.9456 4.97023 32.9456C8.80287 32.9448 17.0078 28.7586 21.6153 26.0382C25.8971 23.5097 29.7495 20.8129 32.4625 18.4444C36.5768 14.8526 36.4891 13.4392 36.0654 12.6885Z" fill="#7EA8B8"/>
<path d="M30.382 24.2303C30.0803 23.9991 29.6547 24.061 29.4296 24.3681C29.2038 24.6751 29.2636 25.1111 29.5638 25.342C34.5154 29.151 35.2105 30.9243 35.1316 31.1809C34.4822 31.9204 28.1806 30.2953 18.4562 24.5538C8.73106 18.8123 4.2054 14.0453 4.50095 13.1092C4.6682 12.9215 6.01708 12.71 9.9086 14.1656C10.2598 14.2974 10.6515 14.1124 10.7811 13.7515C10.91 13.3909 10.7287 12.9918 10.3762 12.86C4.96854 10.8378 3.76391 11.6351 3.3263 12.4097C2.90265 13.1604 2.81489 14.5731 6.92914 18.1652C9.64183 20.5338 13.4942 23.2308 17.7763 25.7589C22.3853 28.4796 30.5898 32.6667 34.4218 32.666C35.3324 32.666 35.9964 32.4296 36.3065 31.8809C37.114 30.45 35.1205 27.876 30.382 24.2303Z" fill="#7EA8B8"/>
</g>
<defs>
<clipPath id="clip0">
<rect x="0.137695" width="39.116" height="40" fill="white"/>
</clipPath>
</defs>
</svg>
