<svg width="35" height="35" viewBox="0 0 35 35" fill="none" xmlns="http://www.w3.org/2000/svg">
<g clip-path="url(#clip0)">
<path d="M23.2395 0C22.1518 0 21.1187 0.489651 20.1197 0.962665C19.1969 1.39975 18.3257 1.81241 17.5002 1.81241C16.6747 1.81241 15.8035 1.39975 14.8807 0.962665C13.8818 0.489386 12.849 0 11.761 0C7.5719 0 4.53125 4.56518 4.53125 10.8545C4.53125 13.6873 5.17497 19.5689 6.36693 24.8896C7.87004 31.5982 9.68484 34.9998 11.761 34.9998C13.2493 34.9998 13.8335 32.441 14.7384 27.9184C15.358 24.8191 16.295 20.1359 17.4978 20.1308C19.1 20.1365 19.9403 24.9052 20.5533 28.3872C21.2549 32.3694 21.7187 35.0001 23.2396 35.0001C28.144 35.0001 30.4693 15.6327 30.4693 10.8546C30.4692 4.56483 27.4283 0 23.2395 0ZM23.2519 33.8335C22.6601 33.6154 22.085 30.347 21.7038 28.1848C20.906 23.6553 20.0808 18.9717 17.4978 18.9627C15.3368 18.9717 14.4896 23.2064 13.5927 27.6892C13.1481 29.9121 12.4041 33.6333 11.761 33.8317C8.58173 33.8317 5.69967 17.2905 5.69967 10.8545C5.69967 5.24183 8.24881 1.16842 11.761 1.16842C12.5862 1.16842 13.4577 1.58108 14.3805 2.01816C15.3794 2.49153 16.4124 2.98083 17.5002 2.98083C18.588 2.98083 19.621 2.49118 20.62 2.01816C21.5428 1.58108 22.4143 1.16842 23.2395 1.16842C26.7516 1.16842 29.3008 5.24183 29.3008 10.8545C29.3008 17.2901 26.4188 33.8316 23.2519 33.8335Z" fill="#7EA8B8"/>
<path d="M22.3333 11.4444H12.6672C12.3256 11.4444 12.0488 11.7211 12.0488 12.0627C12.0488 15.0686 14.4943 17.5141 17.5002 17.5141C20.5061 17.5141 22.9516 15.0686 22.9516 12.0627C22.9516 11.7211 22.675 11.4444 22.3333 11.4444ZM17.5002 16.2775C15.3864 16.2775 13.6304 14.7128 13.3308 12.681H21.6697C21.37 14.7128 19.6141 16.2775 17.5002 16.2775Z" fill="#7EA8B8"/>
<path d="M14.7811 6.02136C14.4473 6.02136 14.1769 6.29198 14.1769 6.62553C14.1769 7.6251 13.3641 8.43794 12.3645 8.43794C11.3649 8.43794 10.5521 7.6251 10.5521 6.62553C10.5521 6.29207 10.2817 6.02136 9.94792 6.02136C9.61411 6.02136 9.34375 6.29198 9.34375 6.62553C9.34375 8.29112 10.6988 9.64618 12.3644 9.64618C14.03 9.64618 15.3851 8.29112 15.3851 6.62553C15.3852 6.29207 15.1149 6.02136 14.7811 6.02136Z" fill="#7EA8B8"/>
<path d="M25.0516 6.02136C24.7178 6.02136 24.4474 6.29198 24.4474 6.62553C24.4474 7.6251 23.6346 8.43794 22.635 8.43794C21.6354 8.43794 20.8226 7.6251 20.8226 6.62553C20.8226 6.29207 20.5522 6.02136 20.2184 6.02136C19.8846 6.02136 19.6143 6.29198 19.6143 6.62553C19.6143 8.29112 20.9693 9.64618 22.6349 9.64618C24.3005 9.64618 25.6556 8.29112 25.6556 6.62553C25.6558 6.29207 25.3854 6.02136 25.0516 6.02136Z" fill="#7EA8B8"/>
</g>
<defs>
<clipPath id="clip0">
<rect width="35" height="35" fill="white"/>
</clipPath>
</defs>
</svg>
