<svg width="35" height="35" viewBox="0 0 35 35" fill="none" xmlns="http://www.w3.org/2000/svg">
<g clip-path="url(#clip0)">
<path d="M7.07093 34.1737C6.94124 34.1737 6.81156 34.1336 6.70255 34.054C6.50959 33.9137 6.41311 33.6762 6.45384 33.4413L8.39031 22.1532L0.188956 14.1599C0.0185516 13.9932 -0.0428442 13.7445 0.0304549 13.5184C0.104381 13.2916 0.300471 13.1262 0.536657 13.0917L11.8698 11.4447L16.9387 1.17467C17.044 0.96041 17.262 0.825089 17.5001 0.825089C17.7388 0.825089 17.9568 0.96041 18.0614 1.17467L23.1297 11.4447L34.4635 13.0917C34.6997 13.1262 34.8951 13.2909 34.9697 13.5184C35.043 13.7445 34.9822 13.9939 34.8112 14.1599L26.6098 22.1545L28.5457 33.4419C28.5858 33.6769 28.4893 33.9143 28.297 34.0546C28.104 34.1962 27.8478 34.2144 27.6366 34.1022L17.5001 28.7733L7.36224 34.1022C7.27078 34.1499 7.17054 34.1737 7.07093 34.1737ZM1.97257 14.1486L9.50045 21.4867C9.64767 21.6301 9.71533 21.8381 9.68025 22.0411L7.9029 32.402L17.2088 27.5103C17.3911 27.4139 17.6085 27.4139 17.792 27.5103L27.0966 32.402L25.3199 22.0411C25.2848 21.8381 25.3525 21.6308 25.4997 21.4867L33.0276 14.1486L22.6247 12.6369C22.4205 12.6074 22.2445 12.479 22.153 12.2942L17.5001 2.86807L12.8471 12.2948C12.7557 12.4796 12.5796 12.6081 12.3754 12.6375L1.97257 14.1486Z" fill="#4A7598"/>
</g>
<defs>
<clipPath id="clip0">
<rect width="35" height="35" fill="white"/>
</clipPath>
</defs>
</svg>
