<svg width="14" height="14" viewBox="0 0 14 14" fill="none" xmlns="http://www.w3.org/2000/svg">
<path d="M11.9492 0H2.05078C0.920074 0 0 0.920074 0 2.05078V11.9492C0 13.0799 0.920074 14 2.05078 14H11.9492C13.0799 14 14 13.0799 14 11.9492V2.05078C14 0.920074 13.0799 0 11.9492 0ZM7.02734 10.6641C4.99184 10.6641 3.33594 9.00816 3.33594 6.97266C3.33594 4.93715 4.99184 3.28125 7.02734 3.28125C9.06285 3.28125 10.7188 4.93715 10.7188 6.97266C10.7188 9.00816 9.06285 10.6641 7.02734 10.6641ZM11.1289 4.10156C10.4504 4.10156 9.89844 3.54956 9.89844 2.87109C9.89844 2.19263 10.4504 1.64062 11.1289 1.64062C11.8074 1.64062 12.3594 2.19263 12.3594 2.87109C12.3594 3.54956 11.8074 4.10156 11.1289 4.10156Z" fill="white"/>
<path d="M11.1289 2.46094C10.9026 2.46094 10.7188 2.64476 10.7188 2.87109C10.7188 3.09743 10.9026 3.28125 11.1289 3.28125C11.3552 3.28125 11.5391 3.09743 11.5391 2.87109C11.5391 2.64476 11.3552 2.46094 11.1289 2.46094Z" fill="white"/>
<path d="M7.02734 4.10156C5.4444 4.10156 4.15625 5.38971 4.15625 6.97266C4.15625 8.5556 5.4444 9.84375 7.02734 9.84375C8.61029 9.84375 9.89844 8.5556 9.89844 6.97266C9.89844 5.38971 8.61029 4.10156 7.02734 4.10156Z" fill="white"/>
</svg>
