<svg width="35" height="35" viewBox="0 0 35 35" fill="none" xmlns="http://www.w3.org/2000/svg">
<g clip-path="url(#clip0)">
<path d="M26.5061 8.19073C25.6574 8.19073 24.8651 8.56837 24.0991 8.93344C23.4168 9.25909 22.7722 9.56645 22.1782 9.56645C21.5844 9.56645 20.9398 9.25918 20.2574 8.93344C19.4914 8.56837 18.6991 8.19073 17.8504 8.19073C14.6202 8.19073 12.2754 11.7063 12.2754 16.5507C12.2754 19.1807 13.8822 35 17.8504 35C19.0723 35 19.5022 33.1233 20.2169 29.5268C20.6205 27.4963 21.3717 23.7166 22.1759 23.7131C23.2802 23.7172 23.9555 27.5751 24.3585 29.8802C24.8981 32.9634 25.2544 35.0001 26.5061 35.0001C30.4743 35.0001 32.0811 19.1807 32.0811 16.5508C32.0811 11.7067 29.736 8.19073 26.5061 8.19073ZM26.5507 33.8697C26.1421 33.5239 25.7392 31.2202 25.4706 29.6856C24.8601 26.1983 24.2292 22.5919 22.1762 22.5845C20.4445 22.5921 19.8261 25.7038 19.1103 29.3071C18.7752 30.9938 18.2713 33.5296 17.812 33.8703C15.6557 33.7294 13.4042 21.8217 13.4042 16.5507C13.4042 12.3606 15.2743 9.31928 17.8505 9.31928C18.4444 9.31928 19.089 9.62656 19.7716 9.9523C20.5377 10.3174 21.33 10.695 22.1786 10.695C23.0272 10.695 23.8195 10.3174 24.5856 9.9523C25.2678 9.62664 25.9125 9.31928 26.5064 9.31928C29.0827 9.31928 30.9527 12.3607 30.9527 16.5507C30.9526 21.8167 28.7047 33.7075 26.5507 33.8697Z" fill="#7EA8B8"/>
<path d="M26.5129 18.746C24.9288 17.9108 22.8035 18.0159 20.9323 18.1075C18.5468 18.2254 17.0729 18.2415 16.8551 17.1515C16.7594 16.6688 16.8271 16.2877 17.0699 15.9527C17.9824 14.6917 21.1029 14.3114 23.8566 13.9758L24.0813 13.9484C25.0668 13.8282 25.862 13.3863 26.4445 12.636C28.0192 10.6075 27.5336 6.8593 27.3506 5.44835L27.3243 5.2435C27.2852 4.92392 26.987 4.69428 26.6735 4.7366C26.3534 4.77601 26.1263 5.06755 26.1664 5.38765L26.1932 5.59831C26.3429 6.75508 26.7996 10.2754 25.5223 11.9202C25.1325 12.4227 24.6144 12.7072 23.94 12.7895L23.7154 12.8169C20.5788 13.1992 17.3354 13.5943 16.1243 15.2683C15.6901 15.8679 15.5509 16.5782 15.7105 17.3793C16.134 19.5117 18.6025 19.3897 20.989 19.2736C22.7129 19.1884 24.6673 19.0923 25.9679 19.7788C28.0528 20.8781 27.3619 28.0553 26.4369 32.3209C26.3683 32.6358 26.5684 32.9469 26.8837 33.0149C26.9254 33.024 26.9669 33.0283 27.008 33.0283C27.2764 33.0283 27.5187 32.8415 27.5779 32.5681C27.8422 31.3504 30.058 20.6158 26.5129 18.746Z" fill="#7EA8B8"/>
<path d="M28.4786 23.788C28.4565 23.4661 28.1684 23.2277 27.8556 23.2461C27.7792 23.2513 25.9713 23.3972 25.3836 25.2287C25.2849 25.5357 25.4542 25.8646 25.7609 25.963C25.8201 25.9822 25.8805 25.9913 25.9392 25.9913C26.1861 25.991 26.4158 25.8333 26.4951 25.5853C26.836 24.5234 27.8848 24.4154 27.9405 24.4102C28.2598 24.386 28.5002 24.1082 28.4786 23.788Z" fill="#7EA8B8"/>
<path d="M31.4591 28.2991C31.3826 27.986 31.0657 27.7913 30.754 27.8698C29.5023 28.1759 28.4576 27.0506 28.4474 27.0393C28.2314 26.8014 27.8632 26.7842 27.6244 26.9984C27.3848 27.2144 27.3661 27.5835 27.5821 27.8228C27.6352 27.8815 28.7462 29.0908 30.3089 29.0908C30.5397 29.0908 30.7807 29.0642 31.0297 29.0041C31.3435 28.9279 31.5355 28.6121 31.4591 28.2991Z" fill="#7EA8B8"/>
<path d="M24.513 2.33478H18.6765C18.354 2.33478 18.0928 2.59623 18.0928 2.91846C18.0928 3.2407 18.354 3.50214 18.6765 3.50214H24.513C24.8358 3.50214 25.0967 3.2407 25.0967 2.91846C25.0967 2.59623 24.8355 2.33478 24.513 2.33478Z" fill="#7EA8B8"/>
<path d="M29.7663 0H24.5134C24.1909 0 23.9297 0.261447 23.9297 0.583682V5.25289C23.9297 5.57503 24.1909 5.83657 24.5134 5.83657H29.7663C30.089 5.83657 30.3499 5.57538 30.3499 5.25289V0.583682C30.3499 0.261447 30.0887 0 29.7663 0ZM29.1826 4.6692H25.097V1.16728H29.1826V4.6692Z" fill="#7EA8B8"/>
<path d="M16.9234 0.58374H3.50165C3.17916 0.58374 2.91797 0.845188 2.91797 1.16742V4.66935C2.91797 4.9915 3.17916 5.25303 3.50165 5.25303H16.9234C17.8901 5.25303 18.6766 4.46834 18.6766 3.50326V2.33351C18.6766 1.36842 17.8899 0.58374 16.9234 0.58374ZM17.5093 3.50318C17.5093 3.82422 17.2464 4.08566 16.9234 4.08566H4.08533V1.75102H16.9234C17.2467 1.75102 17.5093 2.01221 17.5093 2.33351V3.50318Z" fill="#7EA8B8"/>
</g>
<defs>
<clipPath id="clip0">
<rect width="35" height="35" fill="white"/>
</clipPath>
</defs>
</svg>
