<svg width="95" height="41" viewBox="0 0 95 41" fill="none" xmlns="http://www.w3.org/2000/svg">
<path d="M15.9482 35.0291V22.5504H18.4627C20.3609 22.5504 21.877 23.0368 23.0109 24.0097C24.416 25.1945 25.1186 26.7911 25.1186 28.7991C25.1186 30.7448 24.3975 32.3412 22.9554 33.5885C22.3638 34.0998 21.7291 34.4678 21.0511 34.6924C20.3731 34.9169 19.5042 35.0291 18.4442 35.0291H15.9482ZM17.3164 23.86V33.7195H18.5182C19.9849 33.7195 21.162 33.3453 22.0495 32.597C23.1588 31.649 23.7135 30.3832 23.7135 28.7991C23.7135 27.3024 23.2389 26.105 22.2898 25.207C21.3408 24.309 20.0836 23.86 18.5182 23.86H17.3164ZM32.9918 32.4286L34.1011 33.046C33.8423 33.545 33.528 33.9627 33.1582 34.2995C32.4556 34.9356 31.6051 35.2536 30.6068 35.2536C29.5714 35.2536 28.6777 34.9169 27.9259 34.2433C27.1864 33.5573 26.8166 32.5408 26.8166 31.1938C26.8166 30.009 27.1494 29.0298 27.815 28.2565C28.4928 27.4708 29.3987 27.0779 30.5328 27.0779C31.8146 27.0779 32.7821 27.5518 33.4355 28.4998C33.9532 29.2481 34.1936 30.221 34.1566 31.4183H28.1848C28.1969 32.2041 28.4373 32.8402 28.9058 33.3266C29.3741 33.813 29.9473 34.0563 30.6252 34.0563C31.2291 34.0563 31.7531 33.8692 32.1968 33.495C32.5418 33.1957 32.8069 32.8402 32.9918 32.4286ZM28.2772 30.2958H32.7884C32.6775 29.6846 32.4123 29.1982 31.9934 28.8365C31.5867 28.4623 31.0997 28.2753 30.5328 28.2753C29.9781 28.2753 29.4851 28.4685 29.0537 28.8552C28.6346 29.2294 28.3757 29.7097 28.2772 30.2958ZM36.1984 35.0291V27.265H37.5296V30.4455H41.1533V27.265H42.4845V35.0291H41.1533V31.6802H37.5296V35.0291H36.1984ZM50.0204 28.4998H47.6169V35.0291H46.2857V28.4998H43.8822V27.265H50.0204V28.4998ZM57.2984 28.3688V27.265H58.6296V35.0291H57.2984V33.944C56.6328 34.8171 55.7578 35.2536 54.673 35.2536C53.6377 35.2536 52.7565 34.892 52.0292 34.1685C51.302 33.445 50.9383 32.4348 50.9383 31.1377C50.9383 29.8655 51.2959 28.8739 52.0107 28.163C52.738 27.4395 53.6255 27.0779 54.673 27.0779C55.7823 27.0779 56.6576 27.5082 57.2984 28.3688ZM54.8209 28.2753C54.1184 28.2753 53.5206 28.531 53.0275 29.0423C52.5468 29.5413 52.3065 30.2397 52.3065 31.1377C52.3065 31.9983 52.5284 32.7031 52.9721 33.2518C53.4282 33.7882 54.0444 34.0563 54.8209 34.0563C55.5975 34.0563 56.2139 33.7756 56.6698 33.2144C57.1383 32.6531 57.3724 31.9671 57.3724 31.1564C57.3724 30.2335 57.1135 29.5226 56.5958 29.0236C56.0782 28.5246 55.4865 28.2753 54.8209 28.2753ZM66.9564 27.265V35.0291H65.6252V28.4998H62.8889V31.9983C62.8889 33.0086 62.6916 33.7569 62.2972 34.2433C61.8535 34.7921 61.2371 35.0665 60.4484 35.0665C60.3496 35.0665 60.2141 35.054 60.0416 35.0291V33.7943C60.1647 33.8192 60.2635 33.8318 60.3374 33.8318C60.7688 33.8318 61.0892 33.6634 61.2988 33.3266C61.4713 33.0522 61.5577 32.6095 61.5577 31.9983V27.265H66.9564ZM69.4743 27.265H70.8055V32.3912L76.0563 26.6663V35.0291H74.7251V29.8468L69.4743 35.5717V27.265ZM78.5743 27.265H79.9055V30.4455L83.0116 27.265H84.6385L81.3106 30.7261L85.0453 35.0291H83.3074L80.3122 31.6241L79.9055 32.017V35.0291H78.5743V27.265ZM92.2535 28.3688V27.265H93.5847V35.0291H92.2535V33.944C91.5879 34.8171 90.7128 35.2536 89.6281 35.2536C88.5928 35.2536 87.7114 34.892 86.9842 34.1685C86.2571 33.445 85.8934 32.4348 85.8934 31.1377C85.8934 29.8655 86.2508 28.8739 86.9658 28.163C87.6929 27.4395 88.5804 27.0779 89.6281 27.0779C90.7374 27.0779 91.6125 27.5082 92.2535 28.3688ZM89.776 28.2753C89.0735 28.2753 88.4757 28.531 87.9826 29.0423C87.5019 29.5413 87.2616 30.2397 87.2616 31.1377C87.2616 31.9983 87.4834 32.7031 87.9272 33.2518C88.3833 33.7882 88.9995 34.0563 89.776 34.0563C90.5525 34.0563 91.1688 33.7756 91.6249 33.2144C92.0932 32.6531 92.3275 31.9671 92.3275 31.1564C92.3275 30.2335 92.0686 29.5226 91.5509 29.0236C91.0332 28.5246 90.4416 28.2753 89.776 28.2753Z" fill="#4A7598"/>
<path d="M37.4301 20.375V20.7229C37.3306 20.622 37.2222 20.544 37.105 20.4884C36.9629 20.423 36.8198 20.3901 36.6752 20.3901C36.3888 20.3901 36.1496 20.4922 35.9577 20.6964C35.7685 20.898 35.6737 21.1464 35.6737 21.4414C35.6737 21.759 35.7771 22.0098 35.9838 22.1939C36.1931 22.378 36.4248 22.47 36.6789 22.47C36.8384 22.47 36.9928 22.431 37.1423 22.3528C37.247 22.2998 37.3429 22.2292 37.4301 22.141V22.4889C37.2035 22.6527 36.9531 22.7347 36.6789 22.7347C36.3103 22.7347 36.0025 22.6099 35.7559 22.3603C35.5118 22.1107 35.3896 21.8032 35.3896 21.4376C35.3896 21.062 35.513 20.7494 35.7596 20.4998C36.0088 20.2502 36.3202 20.1254 36.6939 20.1254C36.9681 20.1254 37.2133 20.2086 37.4301 20.375ZM41.0271 20.4317H40.4217V22.6893H40.1452V20.4317H39.5398V20.167H41.0271V20.4317ZM45.2187 22.3603C44.9695 22.6099 44.6631 22.7347 44.2994 22.7347C43.9355 22.7347 43.6279 22.6099 43.3763 22.3603C43.1271 22.1107 43.0026 21.8006 43.0026 21.4301C43.0026 21.0569 43.1283 20.7468 43.3801 20.4998C43.6316 20.2502 43.9381 20.1254 44.2994 20.1254C44.6605 20.1254 44.9669 20.2502 45.2187 20.4998C45.4703 20.7468 45.5961 21.0569 45.5961 21.4301C45.5961 21.8006 45.4703 22.1107 45.2187 22.3603ZM45.0169 20.6926C44.82 20.491 44.5808 20.3901 44.2994 20.3901C44.0177 20.3901 43.7786 20.491 43.5819 20.6926C43.385 20.8943 43.2866 21.1401 43.2866 21.4301C43.2866 21.72 43.385 21.9658 43.5819 22.1675C43.7786 22.3691 44.0177 22.47 44.2994 22.47C44.5808 22.47 44.82 22.3691 45.0169 22.1675C45.2136 21.9658 45.3121 21.72 45.3121 21.4301C45.3121 21.1401 45.2136 20.8943 45.0169 20.6926ZM48.1708 22.6893H47.8868L48.3016 20.0271L49.2583 22.1561L50.2336 20.0233L50.6223 22.6893H50.3383L50.1028 20.9347L49.2545 22.7952L48.4174 20.9347L48.1708 22.6893ZM54.734 22.6893L54.4425 21.9784H53.3812L53.0823 22.6893H52.7758L53.9231 20.046L55.0405 22.6893H54.734ZM53.4896 21.7137H54.3342L53.9156 20.704L53.4896 21.7137ZM58.4351 20.4317H57.8297V22.6893H57.5532V20.4317H56.9478V20.167H58.4351V20.4317ZM62.6265 22.3603C62.3775 22.6099 62.0711 22.7347 61.7072 22.7347C61.3435 22.7347 61.0359 22.6099 60.7841 22.3603C60.5351 22.1107 60.4104 21.8006 60.4104 21.4301C60.4104 21.0569 60.5363 20.7468 60.7879 20.4998C61.0396 20.2502 61.3461 20.1254 61.7072 20.1254C62.0685 20.1254 62.3749 20.2502 62.6265 20.4998C62.8783 20.7468 63.0039 21.0569 63.0039 21.4301C63.0039 21.8006 62.8783 22.1107 62.6265 22.3603ZM62.4247 20.6926C62.228 20.491 61.9888 20.3901 61.7072 20.3901C61.4257 20.3901 61.1866 20.491 60.9897 20.6926C60.793 20.8943 60.6945 21.1401 60.6945 21.4301C60.6945 21.72 60.793 21.9658 60.9897 22.1675C61.1866 22.3691 61.4257 22.47 61.7072 22.47C61.9888 22.47 62.228 22.3691 62.4247 22.1675C62.6216 21.9658 62.7199 21.72 62.7199 21.4301C62.7199 21.1401 62.6216 20.8943 62.4247 20.6926ZM65.6346 20.167H67.1519V22.6893H66.8753V20.4317H65.9112V21.7855C65.9112 21.9039 65.91 21.9935 65.9074 22.054C65.9051 22.1119 65.885 22.1951 65.8477 22.3036C65.8128 22.4095 65.7593 22.4953 65.687 22.5607C65.5749 22.6616 65.4328 22.712 65.2609 22.712C65.2212 22.712 65.1712 22.7044 65.1115 22.6893V22.4246C65.1614 22.4397 65.2074 22.4473 65.2497 22.4473C65.3469 22.4473 65.4279 22.4144 65.4926 22.349C65.5375 22.3036 65.5711 22.2393 65.5935 22.1561C65.616 22.0703 65.6285 21.9985 65.6309 21.9406C65.6335 21.8826 65.6346 21.7931 65.6346 21.6721V20.167ZM71.7467 22.3603C71.4975 22.6099 71.1911 22.7347 70.8274 22.7347C70.4635 22.7347 70.1559 22.6099 69.9043 22.3603C69.6551 22.1107 69.5306 21.8006 69.5306 21.4301C69.5306 21.0569 69.6563 20.7468 69.9081 20.4998C70.1596 20.2502 70.4661 20.1254 70.8274 20.1254C71.1885 20.1254 71.4949 20.2502 71.7467 20.4998C71.9983 20.7468 72.1241 21.0569 72.1241 21.4301C72.1241 21.8006 71.9983 22.1107 71.7467 22.3603ZM71.5449 20.6926C71.348 20.491 71.1088 20.3901 70.8274 20.3901C70.5457 20.3901 70.3066 20.491 70.1099 20.6926C69.913 20.8943 69.8146 21.1401 69.8146 21.4301C69.8146 21.72 69.913 21.9658 70.1099 22.1675C70.3066 22.3691 70.5457 22.47 70.8274 22.47C71.1088 22.47 71.348 22.3691 71.5449 22.1675C71.7416 21.9658 71.8401 21.72 71.8401 21.4301C71.8401 21.1401 71.7416 20.8943 71.5449 20.6926ZM74.5007 22.6893V20.167H75.6368V20.4317H74.7773V22.6893H74.5007ZM79.614 22.6893V20.7645L77.88 22.8028V20.167H78.1565V22.0994L79.8905 20.0611V22.6893H79.614ZM82.1924 22.6893L82.9248 21.57C82.7555 21.5523 82.616 21.4993 82.5063 21.4111C82.3619 21.2927 82.2895 21.1212 82.2895 20.8969C82.2895 20.6901 82.347 20.5225 82.4614 20.3939C82.596 20.2426 82.8029 20.167 83.0818 20.167H83.6648V22.6893H83.3882V21.5851H83.2387L82.5287 22.6893H82.1924ZM83.3882 20.4317H83.1192C82.9199 20.4317 82.7779 20.4759 82.6931 20.5641C82.6135 20.6499 82.5735 20.7581 82.5735 20.8893C82.5735 21.038 82.6209 21.1514 82.7156 21.2296C82.8052 21.3003 82.9323 21.3355 83.0967 21.3355H83.3882V20.4317Z" fill="#4A7598"/>
<path d="M21.9306 11.3447C11.8994 21.4953 0 16.9175 0 18.7087C0 20.5 4.91699 21.0971 6.19546 21.0971C27.536 21.0971 22.1273 10.6481 60.8747 10.6481C84.7723 10.6481 92.2464 20.301 92.2464 27.267H92.4431V35.0291H93.6232V26.8904C93.6232 20.7985 87.1323 8.16019 54.1695 8.16019C40.9914 8.16019 40.2226 1.89078 48.2868 1.89078C47.9262 1.55906 45.0021 0 40.1242 0C34.0269 0 26.7208 6.49746 21.9306 11.3447Z" fill="#4A7598"/>
</svg>
