<svg width="13" height="12" viewBox="0 0 13 12" fill="none" xmlns="http://www.w3.org/2000/svg">
<path d="M5.99756 0C3.34599 0 1.1875 2.15849 1.1875 4.81006C1.1875 5.11195 1.21517 5.41635 1.27303 5.71321C1.27555 5.73082 1.28561 5.78365 1.30574 5.87421C1.37869 6.19874 1.48687 6.51824 1.62775 6.82264C2.14599 8.04277 3.28561 9.91698 5.78624 11.9245C5.84913 11.9748 5.92461 12 6.00008 12C6.07555 12 6.15102 11.9748 6.21391 11.9245C8.71203 9.91698 9.85417 8.04277 10.3724 6.82264C10.5133 6.51824 10.6215 6.20126 10.6944 5.87421C10.7145 5.78365 10.7246 5.73082 10.7271 5.71321C10.7825 5.41635 10.8127 5.11195 10.8127 4.81006C10.8076 2.15849 8.64914 0 5.99756 0ZM10.0529 5.59497C10.0529 5.6 10.0504 5.60503 10.0504 5.61006C10.0479 5.62264 10.0403 5.66038 10.0278 5.71824C10.0278 5.72075 10.0278 5.72075 10.0278 5.72327C9.96486 6.00503 9.87178 6.27925 9.74851 6.5434C9.74599 6.54591 9.74599 6.55094 9.74347 6.55346C9.27303 7.66792 8.24159 9.36855 5.99756 11.2226C3.75354 9.36855 2.72209 7.66792 2.25165 6.55346C2.24914 6.55094 2.24914 6.54591 2.24662 6.5434C2.12586 6.28176 2.03278 6.00503 1.96737 5.72327C1.96737 5.72075 1.96737 5.72075 1.96737 5.71824C1.95228 5.66038 1.94725 5.62264 1.94473 5.61006C1.94473 5.60503 1.94222 5.6 1.94222 5.59245C1.8919 5.33333 1.86675 5.0717 1.86675 4.80755C1.86675 2.53082 3.72083 0.67673 5.99756 0.67673C8.27429 0.67673 10.1284 2.53082 10.1284 4.80755C10.1284 5.07421 10.1032 5.33836 10.0529 5.59497Z" fill="white"/>
<path d="M5.99745 1.80884C4.31443 1.80884 2.94336 3.17991 2.94336 4.86293C2.94336 6.54594 4.31443 7.91701 5.99745 7.91701C7.68047 7.91701 9.05154 6.54594 9.05154 4.86293C9.05154 3.17991 7.68047 1.80884 5.99745 1.80884ZM5.99745 7.23777C4.68676 7.23777 3.6226 6.1711 3.6226 4.86293C3.6226 3.55475 4.68927 2.48808 5.99745 2.48808C7.30562 2.48808 8.37229 3.55475 8.37229 4.86293C8.37229 6.1711 7.30814 7.23777 5.99745 7.23777Z" fill="white"/>
</svg>
