<svg width="35" height="35" viewBox="0 0 35 35" fill="none" xmlns="http://www.w3.org/2000/svg">
<path d="M29.8203 12.5163C29.4766 12.4985 29.1997 12.7435 29.1761 13.0757C28.5148 22.4596 25.7163 33.793 23.2524 33.7962C22.6668 33.5509 22.0962 30.3122 21.719 28.1691C20.9206 23.6366 20.0948 18.9499 17.4978 18.9408C15.3227 18.9498 14.4755 23.1873 13.5778 27.6736C13.137 29.8765 12.3994 33.5636 11.7675 33.7929C9.8829 33.7929 6.54499 24.9089 5.79549 12.636C5.7756 12.3035 5.49194 12.0491 5.15674 12.0705C4.82366 12.0908 4.5705 12.3768 4.59101 12.7095C4.79768 16.1 5.52729 21.6113 6.68952 26.2811C8.14929 32.1478 9.8106 34.9998 11.7675 34.9998C13.2698 34.9998 13.8554 32.4381 14.7612 27.9104C15.3417 25.0087 16.3126 20.1528 17.4978 20.1477C19.0813 20.1531 19.9536 25.1029 20.5304 28.3781C21.2328 32.3657 21.6966 34.9998 23.233 34.9998C27.8897 34.9998 30.0546 17.7735 30.3796 13.1607C30.4032 12.8283 30.1527 12.5399 29.8203 12.5163Z" fill="#7EA8B8"/>
<path d="M23.2329 0C22.1415 0 21.1078 0.489712 20.1085 0.96307C19.1886 1.39904 18.3199 1.81034 17.5001 1.81034C16.6804 1.81034 15.8117 1.39913 14.8918 0.96307C13.8924 0.489712 12.8587 0 11.7673 0C7.71183 0 4.73811 4.21028 4.53648 10.2384C4.52534 10.5715 4.78628 10.8507 5.11945 10.8618C5.12581 10.8621 5.13306 10.8621 5.13995 10.8621C5.46339 10.8621 5.73167 10.605 5.74219 10.2788C5.91837 5.0222 8.45258 1.20687 11.7673 1.20687C12.5871 1.20687 13.4558 1.61808 14.3757 2.05414C15.375 2.52758 16.4087 3.01721 17.5001 3.01721C18.5914 3.01721 19.6251 2.5275 20.6244 2.05414C21.5443 1.61817 22.413 1.20687 23.2328 1.20687C26.5228 1.20687 28.9963 4.83356 29.2473 10.0263C29.2639 10.3591 29.5551 10.6068 29.8797 10.5999C30.2119 10.5836 30.4689 10.3008 30.4529 9.96776C30.1688 4.09891 27.1999 0 23.2329 0Z" fill="#7EA8B8"/>
<path d="M24.4393 6.6579H10.5601C10.2375 6.6579 9.97656 6.91946 9.97656 7.2414V15.6896C9.97656 16.0118 10.2379 16.2731 10.5601 16.2731H24.4393C24.7615 16.2731 25.0228 16.0116 25.0228 15.6896V7.2414C25.0228 6.9192 24.7615 6.6579 24.4393 6.6579ZM23.8561 15.1061H11.1436V7.8249H23.8561V15.1061Z" fill="#7EA8B8"/>
<path d="M10.56 9.67505H0.904789C0.582233 9.67505 0.321289 9.93661 0.321289 10.2586V12.6724C0.321289 12.9946 0.582587 13.2559 0.904789 13.2559H10.56C10.8822 13.2559 11.1435 12.9943 11.1435 12.6724V10.2586C11.1435 9.93635 10.8822 9.67505 10.56 9.67505ZM9.97675 12.0889H1.48829V10.8419H9.97666V12.0889H9.97675Z" fill="#7EA8B8"/>
<path d="M34.0951 9.67505H24.4399C24.1174 9.67505 23.8564 9.93661 23.8564 10.2586V12.6724C23.8564 12.9946 24.1177 13.2559 24.4399 13.2559H34.0951C34.4173 13.2559 34.6786 12.9943 34.6786 12.6724V10.2586C34.6786 9.93635 34.4173 9.67505 34.0951 9.67505ZM33.5119 12.0889H25.0235V10.8419H33.5119V12.0889Z" fill="#7EA8B8"/>
<path d="M15.3875 8.44824H13.5771C13.2437 8.44824 12.9736 8.71856 12.9736 9.05172V13.8793C12.9736 14.2123 13.2437 14.4827 13.5771 14.4827H15.3875C15.7209 14.4827 15.9909 14.2124 15.9909 13.8793V9.05172C15.9909 8.71864 15.7209 8.44824 15.3875 8.44824ZM14.784 13.2759H14.1805V9.6552H14.784V13.2759Z" fill="#7EA8B8"/>
<path d="M20.8191 8.44824H19.0087C18.6753 8.44824 18.4053 8.71856 18.4053 9.05172V13.8793C18.4053 14.2123 18.6753 14.4827 19.0087 14.4827H20.8191C21.1525 14.4827 21.4226 14.2124 21.4226 13.8793V9.05172C21.4226 8.71864 21.1525 8.44824 20.8191 8.44824ZM20.2156 13.2759H19.6121V9.6552H20.2156V13.2759Z" fill="#7EA8B8"/>
<path d="M24.44 10.8621H20.8193C20.4859 10.8621 20.2158 11.1324 20.2158 11.4655C20.2158 11.7987 20.4859 12.069 20.8193 12.069H24.44C24.7734 12.069 25.0435 11.7987 25.0435 11.4655C25.0435 11.1324 24.7734 10.8621 24.44 10.8621Z" fill="#7EA8B8"/>
<path d="M19.0083 10.8621H15.3877C15.0542 10.8621 14.7842 11.1324 14.7842 11.4655C14.7842 11.7987 15.0542 12.069 15.3877 12.069H19.0083C19.3418 12.069 19.6118 11.7987 19.6118 11.4655C19.6118 11.1324 19.3418 10.8621 19.0083 10.8621Z" fill="#7EA8B8"/>
<path d="M12.9743 10.8621H10.5605C10.2271 10.8621 9.95703 11.1324 9.95703 11.4655C9.95703 11.7987 10.2271 12.069 10.5605 12.069H12.9743C13.3078 12.069 13.5778 11.7987 13.5778 11.4655C13.5778 11.1324 13.3078 10.8621 12.9743 10.8621Z" fill="#7EA8B8"/>
</svg>
